<svg width="21" height="23" viewBox="0 0 21 23" fill="none" xmlns="http://www.w3.org/2000/svg">
<path d="M2.12132 20.1213L4.24264 18M6.36396 15.8787L4.24264 18M4.24264 18L2.12132 15.8787M4.24264 18L6.36396 20.1213" stroke="#20195E" stroke-width="1.5" stroke-linecap="round" stroke-linejoin="round"/>
<path d="M6.25043 1L15.7504 1L20.2504 5.5V18" stroke="#20195E" stroke-width="1.5" stroke-linecap="round" stroke-linejoin="round"/>
<path d="M10.2504 21H15.7504C16.5789 21 17.2504 20.3284 17.2504 19.5V7.74853C17.2504 7.5894 17.1872 7.43679 17.0747 7.32426L13.9262 4.17574C13.8136 4.06321 13.661 4 13.5019 4H3.75043C2.922 4 2.25043 4.67157 2.25043 5.5V12" stroke="#20195E" stroke-width="1.5" stroke-linecap="round" stroke-linejoin="round"/>
<path d="M13.2504 7.4V4.35355C13.2504 4.15829 13.4087 4 13.604 4C13.6977 4 13.7877 4.03725 13.854 4.10355L17.1469 7.39645C17.2132 7.46275 17.2504 7.55268 17.2504 7.64645C17.2504 7.84171 17.0921 8 16.8969 8H13.8504C13.5191 8 13.2504 7.73137 13.2504 7.4Z" fill="#20195E" stroke="#20195E" stroke-width="1.5" stroke-linecap="round" stroke-linejoin="round"/>
</svg>
